<mxfile host="Electron" agent="Mozilla/5.0 (X11; Linux x86_64) AppleWebKit/537.36 (KHTML, like Gecko) draw.io/27.0.9 Chrome/134.0.6998.205 Electron/35.4.0 Safari/537.36" version="27.0.9">
  <diagram name="Page-1" id="YJSvo7Jfk0gU7ICk547T">
    <mxGraphModel dx="1223" dy="727" grid="1" gridSize="10" guides="1" tooltips="1" connect="1" arrows="1" fold="1" page="1" pageScale="1" pageWidth="850" pageHeight="1100" math="0" shadow="0">
      <root>
        <mxCell id="0" />
        <mxCell id="1" parent="0" />
        <mxCell id="S0cW34gQ7OBaTAPzfA72-8" value="" style="rounded=0;whiteSpace=wrap;html=1;strokeWidth=2;" vertex="1" parent="1">
          <mxGeometry x="20" y="60" width="810" height="170" as="geometry" />
        </mxCell>
        <mxCell id="S0cW34gQ7OBaTAPzfA72-5" style="edgeStyle=orthogonalEdgeStyle;rounded=0;orthogonalLoop=1;jettySize=auto;html=1;exitX=1;exitY=0.5;exitDx=0;exitDy=0;entryX=0;entryY=0.5;entryDx=0;entryDy=0;strokeWidth=2;" edge="1" parent="1" source="S0cW34gQ7OBaTAPzfA72-1" target="S0cW34gQ7OBaTAPzfA72-2">
          <mxGeometry relative="1" as="geometry">
            <Array as="points">
              <mxPoint x="230" y="170" />
              <mxPoint x="230" y="170" />
            </Array>
          </mxGeometry>
        </mxCell>
        <mxCell id="S0cW34gQ7OBaTAPzfA72-11" style="edgeStyle=orthogonalEdgeStyle;rounded=0;orthogonalLoop=1;jettySize=auto;html=1;exitX=0.5;exitY=1;exitDx=0;exitDy=0;strokeWidth=2;" edge="1" parent="1" source="S0cW34gQ7OBaTAPzfA72-1" target="S0cW34gQ7OBaTAPzfA72-10">
          <mxGeometry relative="1" as="geometry" />
        </mxCell>
        <mxCell id="S0cW34gQ7OBaTAPzfA72-1" value="&lt;b&gt;Load&lt;/b&gt;" style="rounded=0;whiteSpace=wrap;html=1;strokeWidth=2;" vertex="1" parent="1">
          <mxGeometry x="80" y="140" width="120" height="60" as="geometry" />
        </mxCell>
        <mxCell id="S0cW34gQ7OBaTAPzfA72-6" style="edgeStyle=orthogonalEdgeStyle;rounded=0;orthogonalLoop=1;jettySize=auto;html=1;exitX=1;exitY=0.5;exitDx=0;exitDy=0;entryX=0;entryY=0.5;entryDx=0;entryDy=0;strokeWidth=2;" edge="1" parent="1" source="S0cW34gQ7OBaTAPzfA72-2" target="S0cW34gQ7OBaTAPzfA72-3">
          <mxGeometry relative="1" as="geometry" />
        </mxCell>
        <mxCell id="S0cW34gQ7OBaTAPzfA72-12" style="edgeStyle=orthogonalEdgeStyle;rounded=0;orthogonalLoop=1;jettySize=auto;html=1;exitX=0.5;exitY=1;exitDx=0;exitDy=0;strokeWidth=2;" edge="1" parent="1" source="S0cW34gQ7OBaTAPzfA72-2" target="S0cW34gQ7OBaTAPzfA72-10">
          <mxGeometry relative="1" as="geometry" />
        </mxCell>
        <mxCell id="S0cW34gQ7OBaTAPzfA72-2" value="&lt;b&gt;Transform&lt;/b&gt;" style="rounded=0;whiteSpace=wrap;html=1;strokeWidth=2;" vertex="1" parent="1">
          <mxGeometry x="270" y="140" width="120" height="60" as="geometry" />
        </mxCell>
        <mxCell id="S0cW34gQ7OBaTAPzfA72-7" style="edgeStyle=orthogonalEdgeStyle;rounded=0;orthogonalLoop=1;jettySize=auto;html=1;exitX=1;exitY=0.5;exitDx=0;exitDy=0;entryX=0;entryY=0.5;entryDx=0;entryDy=0;strokeWidth=2;" edge="1" parent="1" source="S0cW34gQ7OBaTAPzfA72-3" target="S0cW34gQ7OBaTAPzfA72-4">
          <mxGeometry relative="1" as="geometry" />
        </mxCell>
        <mxCell id="S0cW34gQ7OBaTAPzfA72-13" style="edgeStyle=orthogonalEdgeStyle;rounded=0;orthogonalLoop=1;jettySize=auto;html=1;exitX=0.5;exitY=1;exitDx=0;exitDy=0;entryX=0.5;entryY=0;entryDx=0;entryDy=0;strokeWidth=2;" edge="1" parent="1" source="S0cW34gQ7OBaTAPzfA72-3" target="S0cW34gQ7OBaTAPzfA72-10">
          <mxGeometry relative="1" as="geometry" />
        </mxCell>
        <mxCell id="S0cW34gQ7OBaTAPzfA72-3" value="&lt;b&gt;Train&lt;/b&gt;" style="rounded=0;whiteSpace=wrap;html=1;strokeWidth=2;" vertex="1" parent="1">
          <mxGeometry x="460" y="140" width="120" height="60" as="geometry" />
        </mxCell>
        <mxCell id="S0cW34gQ7OBaTAPzfA72-14" style="edgeStyle=orthogonalEdgeStyle;rounded=0;orthogonalLoop=1;jettySize=auto;html=1;exitX=0.5;exitY=1;exitDx=0;exitDy=0;entryX=0.5;entryY=0;entryDx=0;entryDy=0;strokeWidth=2;" edge="1" parent="1" source="S0cW34gQ7OBaTAPzfA72-4" target="S0cW34gQ7OBaTAPzfA72-10">
          <mxGeometry relative="1" as="geometry" />
        </mxCell>
        <mxCell id="S0cW34gQ7OBaTAPzfA72-4" value="&lt;b&gt;Inference&lt;/b&gt;" style="rounded=0;whiteSpace=wrap;html=1;strokeWidth=2;" vertex="1" parent="1">
          <mxGeometry x="650" y="140" width="120" height="60" as="geometry" />
        </mxCell>
        <mxCell id="S0cW34gQ7OBaTAPzfA72-9" value="&lt;font style=&quot;font-size: 18px;&quot;&gt;&lt;b&gt;Model Pipeline&lt;/b&gt;&lt;/font&gt;" style="text;strokeColor=none;align=center;fillColor=none;html=1;verticalAlign=middle;whiteSpace=wrap;rounded=0;" vertex="1" parent="1">
          <mxGeometry x="352" y="80" width="147" height="30" as="geometry" />
        </mxCell>
        <mxCell id="S0cW34gQ7OBaTAPzfA72-10" value="&lt;b&gt;Model Structure&lt;/b&gt;" style="rounded=0;whiteSpace=wrap;html=1;strokeWidth=2;" vertex="1" parent="1">
          <mxGeometry x="366" y="330" width="120" height="60" as="geometry" />
        </mxCell>
      </root>
    </mxGraphModel>
  </diagram>
</mxfile>
